# xmcd
# 
# Track frame offsets:
#     150
#     28136
#     54939
#     82027
#     98562
#     138516
# 
# Disc length: 2180
# 
# Revision: 5
# Processed by: cddbd v1.5.2PL0 Copyright (c) Steve Scherf et al.
# Submitted via: fre:ac v1.0.27
# 
DISCID=46088206
DTITLE=Kraftwerk - The Man•Machine
DYEAR=1978
DGENRE=Rock
TTITLE0=The Robots
TTITLE1=Spacelab
TTITLE2=Metropolis
TTITLE3=The Model
TTITLE4=Neon Lights
TTITLE5=The Man•Machine
EXTD=
EXTT0=
EXTT1=
EXTT2=
EXTT3=
EXTT4=
EXTT5=
PLAYORDER=
